<mxfile host="Electron" modified="2024-01-26T00:29:46.234Z" agent="Mozilla/5.0 (Macintosh; Intel Mac OS X 10_15_7) AppleWebKit/537.36 (KHTML, like Gecko) draw.io/22.1.21 Chrome/120.0.6099.109 Electron/28.1.0 Safari/537.36" etag="Zf12Coge-Rdvd7kq50fF" version="22.1.21" type="device">
  <diagram name="Page-1" id="9GdHKPpQMgJEwB9SDRKC">
    <mxGraphModel dx="1508" dy="767" grid="0" gridSize="10" guides="1" tooltips="1" connect="1" arrows="1" fold="1" page="1" pageScale="1" pageWidth="1100" pageHeight="850" math="0" shadow="0">
      <root>
        <mxCell id="0" />
        <mxCell id="1" parent="0" />
        <mxCell id="tsbfdM2prn32jk1IC8PU-1" value="&lt;ul style=&quot;font-size: 10px;&quot;&gt;&lt;li style=&quot;font-size: 10px;&quot;&gt;&lt;font style=&quot;font-size: 10px;&quot;&gt;Amazon Simple Storage Service S3 was one of first service that AWS released&lt;/font&gt;&lt;/li&gt;&lt;li style=&quot;font-size: 10px;&quot;&gt;&lt;font style=&quot;font-size: 10px;&quot;&gt;S3 have buckets, and bucket is a container, that we can put our objects, this objects in general are files (.png|.doc|.pdf)&lt;/font&gt;&lt;/li&gt;&lt;li style=&quot;font-size: 10px;&quot;&gt;&lt;font style=&quot;font-size: 10px;&quot;&gt;We can store millions of object in the same bucket&lt;/font&gt;&lt;/li&gt;&lt;li style=&quot;font-size: 10px;&quot;&gt;&lt;font style=&quot;font-size: 10px;&quot;&gt;S3 is extremely scalable, and we can really store huge quantities of data using S3&lt;/font&gt;&lt;/li&gt;&lt;/ul&gt;" style="text;html=1;strokeColor=none;fillColor=none;align=left;verticalAlign=middle;whiteSpace=wrap;rounded=0;fontFamily=Verdana;fontSize=10;" parent="1" vertex="1">
          <mxGeometry x="57" y="8.75" width="665" height="76" as="geometry" />
        </mxCell>
        <mxCell id="tsbfdM2prn32jk1IC8PU-2" value="" style="outlineConnect=0;dashed=0;verticalLabelPosition=bottom;verticalAlign=top;align=center;html=1;shape=mxgraph.aws3.bucket_with_objects;fillColor=#E05243;gradientColor=none;fontFamily=Verdana;fontSize=10;" parent="1" vertex="1">
          <mxGeometry x="24" y="25" width="46" height="47" as="geometry" />
        </mxCell>
        <mxCell id="tsbfdM2prn32jk1IC8PU-3" value="&lt;ul style=&quot;font-size: 10px;&quot;&gt;&lt;li style=&quot;font-size: 10px;&quot;&gt;How we can access this objects, &lt;i style=&quot;font-size: 10px;&quot;&gt;https://&lt;b style=&quot;font-size: 10px;&quot;&gt;&lt;font color=&quot;#ff0000&quot; style=&quot;font-size: 10px;&quot;&gt;bucket&lt;/font&gt;&lt;/b&gt;.s3.&lt;b style=&quot;font-size: 10px;&quot;&gt;&lt;font color=&quot;#ff0000&quot; style=&quot;font-size: 10px;&quot;&gt;aws-region&lt;/font&gt;&lt;/b&gt;.amazonaws.com/key &lt;/i&gt;or &lt;i style=&quot;font-size: 10px;&quot;&gt;https://&lt;b style=&quot;font-size: 10px;&quot;&gt;&lt;font color=&quot;#ff0000&quot; style=&quot;font-size: 10px;&quot;&gt;s3&lt;/font&gt;&lt;/b&gt;.&lt;font color=&quot;#ff0000&quot; style=&quot;font-size: 10px;&quot;&gt;&lt;b style=&quot;font-size: 10px;&quot;&gt;aws-region&lt;/b&gt;&lt;/font&gt;.amazonaws.com.bucket/key,&amp;nbsp;&lt;/i&gt;&lt;/li&gt;&lt;li style=&quot;font-size: 10px;&quot;&gt;&lt;i style=&quot;font-size: 10px;&quot;&gt;* O&lt;/i&gt;&lt;span style=&quot;font-size: 10px;&quot;&gt;bjects (files) have a key, key is the full path &lt;b&gt;s3://my-bucket/my_file.txt&lt;/b&gt; Or &lt;b&gt;s3://my-bucket/#*my_folder/my_another_folder/my_file.txt*#&lt;/b&gt; the key will be the full_path (yellow highlighted), composed by prefix + object name, everything and anything are actually a key&lt;br style=&quot;font-size: 10px;&quot;&gt;&lt;/span&gt;&lt;/li&gt;&lt;li style=&quot;font-size: 10px;&quot;&gt;HTTPs is represented by REST over HTTP protocol used with GET,PUT,POST verbs&lt;/li&gt;&lt;li style=&quot;font-size: 10px;&quot;&gt;We can store any file type in S3, file can be anywhere from 0 bytes to 5TB, there is unlimited storage available, but if more than 5TB, must be use &lt;i&gt;&#39;multi-part upload&#39;&lt;/i&gt;&lt;/li&gt;&lt;li style=&quot;font-size: 10px;&quot;&gt;S3 is a universal namespace so &lt;b style=&quot;font-size: 10px;&quot;&gt;bucket names &lt;/b&gt;must be &lt;b style=&quot;font-size: 10px;&quot;&gt;unique globally, even globally &lt;/b&gt;&lt;span style=&quot;font-size: 10px;&quot;&gt;the buckets must be within a &lt;b&gt;REGION&lt;/b&gt;&lt;/span&gt;&lt;/li&gt;&lt;li style=&quot;font-size: 10px;&quot;&gt;Always prefer to create bucket in regions that are physically closest to your users to reduce latency&lt;/li&gt;&lt;/ul&gt;" style="text;html=1;strokeColor=none;fillColor=none;align=left;verticalAlign=middle;whiteSpace=wrap;rounded=0;fontFamily=Verdana;fontSize=10;" parent="1" vertex="1">
          <mxGeometry x="68" y="117" width="957" height="117" as="geometry" />
        </mxCell>
        <mxCell id="tsbfdM2prn32jk1IC8PU-4" value="" style="outlineConnect=0;dashed=0;verticalLabelPosition=bottom;verticalAlign=top;align=center;html=1;shape=mxgraph.aws3.bucket_with_objects;fillColor=#E05243;gradientColor=none;fontFamily=Verdana;fontSize=10;" parent="1" vertex="1">
          <mxGeometry x="16" y="128" width="31" height="33.75" as="geometry" />
        </mxCell>
        <mxCell id="tsbfdM2prn32jk1IC8PU-6" value="" style="sketch=0;outlineConnect=0;fontColor=#232F3E;gradientColor=none;fillColor=#7AA116;strokeColor=none;dashed=0;verticalLabelPosition=bottom;verticalAlign=top;align=center;html=1;fontSize=10;fontStyle=0;aspect=fixed;pointerEvents=1;shape=mxgraph.aws4.bucket_with_objects;fontFamily=Verdana;" parent="1" vertex="1">
          <mxGeometry x="56" y="149" width="36.54" height="38" as="geometry" />
        </mxCell>
        <mxCell id="tsbfdM2prn32jk1IC8PU-7" value="&lt;b&gt;A&lt;/b&gt;" style="text;html=1;strokeColor=none;fillColor=none;align=center;verticalAlign=middle;whiteSpace=wrap;rounded=0;fontFamily=Verdana;fontSize=10;" parent="1" vertex="1">
          <mxGeometry x="23" y="161.75" width="17" height="15.25" as="geometry" />
        </mxCell>
        <mxCell id="tsbfdM2prn32jk1IC8PU-8" value="&lt;b&gt;B&lt;/b&gt;" style="text;html=1;strokeColor=none;fillColor=none;align=center;verticalAlign=middle;whiteSpace=wrap;rounded=0;fontFamily=Verdana;fontSize=10;" parent="1" vertex="1">
          <mxGeometry x="65.41" y="187" width="17.73" height="16" as="geometry" />
        </mxCell>
        <mxCell id="tsbfdM2prn32jk1IC8PU-9" value="" style="endArrow=none;html=1;rounded=0;sketch=1;hachureGap=4;jiggle=2;curveFitting=1;fontFamily=Verdana;fontSize=10;" parent="1" edge="1">
          <mxGeometry width="50" height="50" relative="1" as="geometry">
            <mxPoint x="255" y="101" as="sourcePoint" />
            <mxPoint x="757" y="98" as="targetPoint" />
          </mxGeometry>
        </mxCell>
        <mxCell id="tsbfdM2prn32jk1IC8PU-10" value="" style="sketch=0;outlineConnect=0;fontColor=#232F3E;gradientColor=none;fillColor=#7AA116;strokeColor=none;dashed=0;verticalLabelPosition=bottom;verticalAlign=top;align=center;html=1;fontSize=10;fontStyle=0;aspect=fixed;pointerEvents=1;shape=mxgraph.aws4.bucket_with_objects;fontFamily=Verdana;" parent="1" vertex="1">
          <mxGeometry x="63.87" y="292" width="36.54" height="38" as="geometry" />
        </mxCell>
        <mxCell id="tsbfdM2prn32jk1IC8PU-11" value="&lt;b&gt;myacronym-uuid-bucket&lt;/b&gt;" style="text;html=1;strokeColor=none;fillColor=none;align=center;verticalAlign=middle;whiteSpace=wrap;rounded=0;fontFamily=Verdana;fontSize=10;" parent="1" vertex="1">
          <mxGeometry x="17.14" y="273" width="141.86" height="18" as="geometry" />
        </mxCell>
        <mxCell id="tsbfdM2prn32jk1IC8PU-13" value="" style="endArrow=none;html=1;rounded=0;sketch=1;hachureGap=4;jiggle=2;curveFitting=1;fontFamily=Verdana;fontSize=10;" parent="1" edge="1">
          <mxGeometry width="50" height="50" relative="1" as="geometry">
            <mxPoint x="248" y="251" as="sourcePoint" />
            <mxPoint x="750" y="248" as="targetPoint" />
          </mxGeometry>
        </mxCell>
        <mxCell id="tsbfdM2prn32jk1IC8PU-14" value="&lt;ul style=&quot;font-size: 10px;&quot;&gt;&lt;li style=&quot;font-size: 10px;&quot;&gt;&lt;font style=&quot;font-size: 10px;&quot;&gt;https://&lt;b&gt;&lt;font color=&quot;#ff3333&quot;&gt;myacronym-uuid-bucket&lt;/font&gt;&lt;/b&gt;.s3-website-&lt;b&gt;&lt;font color=&quot;#ff3333&quot;&gt;sa-east-1&lt;/font&gt;&lt;/b&gt;.amazonaws.com&lt;/font&gt;&lt;/li&gt;&lt;li style=&quot;border-color: var(--border-color);&quot;&gt;&lt;font style=&quot;border-color: var(--border-color);&quot;&gt;https://&lt;b style=&quot;border-color: var(--border-color);&quot;&gt;&lt;font style=&quot;border-color: var(--border-color);&quot; color=&quot;#ff3333&quot;&gt;myacronym-uuid-bucket&lt;/font&gt;&lt;/b&gt;.s3-website-&lt;b style=&quot;border-color: var(--border-color);&quot;&gt;&lt;font style=&quot;border-color: var(--border-color);&quot; color=&quot;#ff3333&quot;&gt;sa-east-1&lt;/font&gt;&lt;/b&gt;.amazonaws.com/my-apicontract.yml&lt;/font&gt;&lt;/li&gt;&lt;li style=&quot;border-color: var(--border-color);&quot;&gt;&lt;font style=&quot;border-color: var(--border-color);&quot;&gt;https://&lt;b style=&quot;border-color: var(--border-color);&quot;&gt;&lt;font style=&quot;border-color: var(--border-color);&quot; color=&quot;#ff3333&quot;&gt;myacronym-uuid-bucket&lt;/font&gt;&lt;/b&gt;.s3-website-&lt;b style=&quot;border-color: var(--border-color);&quot;&gt;&lt;font style=&quot;border-color: var(--border-color);&quot; color=&quot;#ff3333&quot;&gt;sa-east-1&lt;/font&gt;&lt;/b&gt;.amazonaws.com/&lt;b&gt;world-z&lt;/b&gt;/my-apicontract.yml&lt;/font&gt;&lt;/li&gt;&lt;li style=&quot;border-color: var(--border-color);&quot;&gt;&lt;font style=&quot;border-color: var(--border-color);&quot;&gt;Rules - folder can be create within folder, but bucket &lt;b&gt;cannot&lt;/b&gt;&amp;nbsp;be create within other buckets&lt;/font&gt;&lt;/li&gt;&lt;li style=&quot;border-color: var(--border-color);&quot;&gt;&lt;font style=&quot;border-color: var(--border-color);&quot;&gt;Object consists of: key-name (object&#39;s name), version ID, value (actual data),&amp;nbsp; Metadata, sub-resources, access control information&lt;/font&gt;&lt;/li&gt;&lt;li style=&quot;border-color: var(--border-color);&quot;&gt;&lt;font style=&quot;border-color: var(--border-color);&quot;&gt;S3 is a public service and the URLs are publics, and each bucket URL can be access over the internet based on previous permissions&lt;/font&gt;&lt;/li&gt;&lt;/ul&gt;" style="text;html=1;strokeColor=none;fillColor=none;align=left;verticalAlign=middle;whiteSpace=wrap;rounded=0;fontFamily=Verdana;fontSize=10;" parent="1" vertex="1">
          <mxGeometry x="143" y="267" width="852" height="75" as="geometry" />
        </mxCell>
        <mxCell id="tsbfdM2prn32jk1IC8PU-15" value="" style="endArrow=none;html=1;rounded=0;exitX=0.334;exitY=0.103;exitDx=0;exitDy=0;exitPerimeter=0;" parent="1" edge="1">
          <mxGeometry width="50" height="50" relative="1" as="geometry">
            <mxPoint x="80.32996000000003" y="389.98699999999985" as="sourcePoint" />
            <mxPoint x="80" y="330" as="targetPoint" />
          </mxGeometry>
        </mxCell>
        <mxCell id="tsbfdM2prn32jk1IC8PU-17" value="" style="endArrow=none;html=1;rounded=0;" parent="1" edge="1">
          <mxGeometry width="50" height="50" relative="1" as="geometry">
            <mxPoint x="80" y="358" as="sourcePoint" />
            <mxPoint x="111" y="358" as="targetPoint" />
          </mxGeometry>
        </mxCell>
        <mxCell id="tsbfdM2prn32jk1IC8PU-18" value="IAM Policy" style="sketch=0;outlineConnect=0;fontColor=#232F3E;gradientColor=none;fillColor=#7AA116;strokeColor=none;dashed=0;verticalLabelPosition=bottom;verticalAlign=top;align=center;html=1;fontSize=9;fontStyle=0;aspect=fixed;pointerEvents=1;shape=mxgraph.aws4.policy;" parent="1" vertex="1">
          <mxGeometry x="35" y="296" width="26.78" height="23" as="geometry" />
        </mxCell>
        <mxCell id="tsbfdM2prn32jk1IC8PU-19" value="" style="ellipse;whiteSpace=wrap;html=1;aspect=fixed;" parent="1" vertex="1">
          <mxGeometry x="111" y="353" width="10" height="10" as="geometry" />
        </mxCell>
        <mxCell id="tsbfdM2prn32jk1IC8PU-22" value="my-apicontract.yml" style="text;html=1;strokeColor=none;fillColor=none;align=left;verticalAlign=middle;whiteSpace=wrap;rounded=0;fontFamily=Verdana;fontSize=10;fontStyle=2" parent="1" vertex="1">
          <mxGeometry x="122" y="347" width="104" height="17" as="geometry" />
        </mxCell>
        <mxCell id="tsbfdM2prn32jk1IC8PU-26" value="" style="ellipse;whiteSpace=wrap;html=1;aspect=fixed;" parent="1" vertex="1">
          <mxGeometry x="123.94" y="404" width="10" height="10" as="geometry" />
        </mxCell>
        <mxCell id="tsbfdM2prn32jk1IC8PU-27" value="my-apicontract.yml" style="text;html=1;strokeColor=none;fillColor=none;align=left;verticalAlign=middle;whiteSpace=wrap;rounded=0;fontFamily=Verdana;fontSize=10;fontStyle=2" parent="1" vertex="1">
          <mxGeometry x="134" y="399" width="104" height="17" as="geometry" />
        </mxCell>
        <mxCell id="tsbfdM2prn32jk1IC8PU-28" value="world-z" style="text;html=1;strokeColor=none;fillColor=none;align=left;verticalAlign=middle;whiteSpace=wrap;rounded=0;fontFamily=Verdana;fontSize=10;fontStyle=2" parent="1" vertex="1">
          <mxGeometry x="70" y="407" width="46" height="18" as="geometry" />
        </mxCell>
        <mxCell id="tsbfdM2prn32jk1IC8PU-29" value="" style="sketch=0;pointerEvents=1;shadow=0;dashed=0;html=1;strokeColor=none;fillColor=#505050;labelPosition=center;verticalLabelPosition=bottom;verticalAlign=top;outlineConnect=0;align=center;shape=mxgraph.office.concepts.folder_open;" parent="1" vertex="1">
          <mxGeometry x="80" y="389" width="31" height="21" as="geometry" />
        </mxCell>
        <mxCell id="tsbfdM2prn32jk1IC8PU-30" value="" style="endArrow=none;html=1;rounded=0;" parent="1" edge="1">
          <mxGeometry width="50" height="50" relative="1" as="geometry">
            <mxPoint x="105" y="409" as="sourcePoint" />
            <mxPoint x="123" y="409" as="targetPoint" />
          </mxGeometry>
        </mxCell>
        <mxCell id="tsbfdM2prn32jk1IC8PU-37" style="edgeStyle=orthogonalEdgeStyle;rounded=0;orthogonalLoop=1;jettySize=auto;html=1;" parent="1" source="tsbfdM2prn32jk1IC8PU-33" target="tsbfdM2prn32jk1IC8PU-36" edge="1">
          <mxGeometry relative="1" as="geometry" />
        </mxCell>
        <mxCell id="tsbfdM2prn32jk1IC8PU-33" value="APP" style="sketch=0;aspect=fixed;pointerEvents=1;shadow=0;dashed=0;html=1;strokeColor=none;labelPosition=center;verticalLabelPosition=bottom;verticalAlign=top;align=center;fillColor=#00188D;shape=mxgraph.mscae.enterprise.application_blank" parent="1" vertex="1">
          <mxGeometry x="339" y="364" width="50" height="43" as="geometry" />
        </mxCell>
        <mxCell id="tsbfdM2prn32jk1IC8PU-34" value="my-bucket" style="sketch=0;outlineConnect=0;fontColor=#232F3E;gradientColor=none;fillColor=#7AA116;strokeColor=none;dashed=0;verticalLabelPosition=bottom;verticalAlign=top;align=center;html=1;fontSize=10;fontStyle=0;aspect=fixed;pointerEvents=1;shape=mxgraph.aws4.bucket_with_objects;fontFamily=Verdana;" parent="1" vertex="1">
          <mxGeometry x="573.87" y="366.5" width="36.54" height="38" as="geometry" />
        </mxCell>
        <mxCell id="tsbfdM2prn32jk1IC8PU-35" value="IAM Policy" style="sketch=0;outlineConnect=0;fontColor=#232F3E;gradientColor=none;fillColor=#7AA116;strokeColor=none;dashed=0;verticalLabelPosition=bottom;verticalAlign=top;align=center;html=1;fontSize=9;fontStyle=0;aspect=fixed;pointerEvents=1;shape=mxgraph.aws4.policy;" parent="1" vertex="1">
          <mxGeometry x="615" y="361" width="26.78" height="23" as="geometry" />
        </mxCell>
        <mxCell id="tsbfdM2prn32jk1IC8PU-39" style="edgeStyle=orthogonalEdgeStyle;rounded=0;orthogonalLoop=1;jettySize=auto;html=1;" parent="1" source="tsbfdM2prn32jk1IC8PU-36" target="tsbfdM2prn32jk1IC8PU-34" edge="1">
          <mxGeometry relative="1" as="geometry" />
        </mxCell>
        <mxCell id="tsbfdM2prn32jk1IC8PU-36" value="www" style="image;aspect=fixed;perimeter=ellipsePerimeter;html=1;align=center;shadow=0;dashed=0;spacingTop=3;image=img/lib/active_directory/internet_globe.svg;" parent="1" vertex="1">
          <mxGeometry x="453" y="369" width="33" height="33" as="geometry" />
        </mxCell>
        <mxCell id="tsbfdM2prn32jk1IC8PU-41" style="edgeStyle=orthogonalEdgeStyle;rounded=0;orthogonalLoop=1;jettySize=auto;html=1;entryX=0;entryY=0.5;entryDx=0;entryDy=0;" parent="1" source="tsbfdM2prn32jk1IC8PU-40" target="tsbfdM2prn32jk1IC8PU-36" edge="1">
          <mxGeometry relative="1" as="geometry" />
        </mxCell>
        <mxCell id="tsbfdM2prn32jk1IC8PU-40" value="" style="image;sketch=0;aspect=fixed;html=1;points=[];align=center;fontSize=12;image=img/lib/mscae/Managed_Desktop.svg;" parent="1" vertex="1">
          <mxGeometry x="339" y="454" width="50" height="36" as="geometry" />
        </mxCell>
        <mxCell id="tsbfdM2prn32jk1IC8PU-42" value="VPC" style="sketch=0;outlineConnect=0;gradientColor=none;html=1;whiteSpace=wrap;fontSize=12;fontStyle=0;shape=mxgraph.aws4.group;grIcon=mxgraph.aws4.group_vpc;strokeColor=#879196;fillColor=none;verticalAlign=top;align=left;spacingLeft=30;fontColor=#879196;dashed=0;" parent="1" vertex="1">
          <mxGeometry x="339" y="514" width="157" height="120" as="geometry" />
        </mxCell>
        <mxCell id="tsbfdM2prn32jk1IC8PU-43" value="" style="points=[[0,0],[0.25,0],[0.5,0],[0.75,0],[1,0],[1,0.25],[1,0.5],[1,0.75],[1,1],[0.75,1],[0.5,1],[0.25,1],[0,1],[0,0.75],[0,0.5],[0,0.25]];outlineConnect=0;gradientColor=none;html=1;whiteSpace=wrap;fontSize=12;fontStyle=0;container=1;pointerEvents=0;collapsible=0;recursiveResize=0;shape=mxgraph.aws4.group;grIcon=mxgraph.aws4.group_security_group;grStroke=0;strokeColor=#7AA116;fillColor=#F2F6E8;verticalAlign=top;align=left;spacingLeft=30;fontColor=#248814;dashed=0;" parent="1" vertex="1">
          <mxGeometry x="355" y="545" width="109" height="36" as="geometry" />
        </mxCell>
        <mxCell id="tsbfdM2prn32jk1IC8PU-45" value="" style="sketch=0;outlineConnect=0;fontColor=#232F3E;gradientColor=none;fillColor=#ED7100;strokeColor=none;dashed=0;verticalLabelPosition=bottom;verticalAlign=top;align=center;html=1;fontSize=12;fontStyle=0;aspect=fixed;pointerEvents=1;shape=mxgraph.aws4.instance2;" parent="tsbfdM2prn32jk1IC8PU-43" vertex="1">
          <mxGeometry x="72" y="6.5" width="23" height="23" as="geometry" />
        </mxCell>
        <mxCell id="tsbfdM2prn32jk1IC8PU-44" value="" style="points=[[0,0],[0.25,0],[0.5,0],[0.75,0],[1,0],[1,0.25],[1,0.5],[1,0.75],[1,1],[0.75,1],[0.5,1],[0.25,1],[0,1],[0,0.75],[0,0.5],[0,0.25]];outlineConnect=0;gradientColor=none;html=1;whiteSpace=wrap;fontSize=12;fontStyle=0;container=1;pointerEvents=0;collapsible=0;recursiveResize=0;shape=mxgraph.aws4.group;grIcon=mxgraph.aws4.group_security_group;grStroke=0;strokeColor=#00A4A6;fillColor=#E6F6F7;verticalAlign=top;align=left;spacingLeft=30;fontColor=#147EBA;dashed=0;" parent="1" vertex="1">
          <mxGeometry x="355" y="586" width="109" height="40" as="geometry" />
        </mxCell>
        <mxCell id="tsbfdM2prn32jk1IC8PU-46" value="" style="sketch=0;outlineConnect=0;fontColor=#232F3E;gradientColor=none;fillColor=#ED7100;strokeColor=none;dashed=0;verticalLabelPosition=bottom;verticalAlign=top;align=center;html=1;fontSize=12;fontStyle=0;aspect=fixed;pointerEvents=1;shape=mxgraph.aws4.instance2;" parent="tsbfdM2prn32jk1IC8PU-44" vertex="1">
          <mxGeometry x="72" y="8.5" width="23" height="23" as="geometry" />
        </mxCell>
        <mxCell id="tsbfdM2prn32jk1IC8PU-49" style="edgeStyle=orthogonalEdgeStyle;rounded=0;orthogonalLoop=1;jettySize=auto;html=1;" parent="1" source="tsbfdM2prn32jk1IC8PU-47" target="tsbfdM2prn32jk1IC8PU-34" edge="1">
          <mxGeometry relative="1" as="geometry" />
        </mxCell>
        <mxCell id="tsbfdM2prn32jk1IC8PU-47" value="" style="sketch=0;outlineConnect=0;fontColor=#232F3E;gradientColor=none;fillColor=#8C4FFF;strokeColor=none;dashed=0;verticalLabelPosition=bottom;verticalAlign=top;align=center;html=1;fontSize=12;fontStyle=0;aspect=fixed;pointerEvents=1;shape=mxgraph.aws4.internet_gateway;" parent="1" vertex="1">
          <mxGeometry x="480" y="547.5" width="31" height="31" as="geometry" />
        </mxCell>
        <mxCell id="tsbfdM2prn32jk1IC8PU-48" style="edgeStyle=orthogonalEdgeStyle;rounded=0;orthogonalLoop=1;jettySize=auto;html=1;" parent="1" source="tsbfdM2prn32jk1IC8PU-45" target="tsbfdM2prn32jk1IC8PU-47" edge="1">
          <mxGeometry relative="1" as="geometry" />
        </mxCell>
        <mxCell id="tsbfdM2prn32jk1IC8PU-52" style="edgeStyle=orthogonalEdgeStyle;rounded=0;orthogonalLoop=1;jettySize=auto;html=1;" parent="1" source="tsbfdM2prn32jk1IC8PU-50" target="tsbfdM2prn32jk1IC8PU-34" edge="1">
          <mxGeometry relative="1" as="geometry" />
        </mxCell>
        <mxCell id="tsbfdM2prn32jk1IC8PU-50" value="" style="sketch=0;outlineConnect=0;fontColor=#232F3E;gradientColor=none;fillColor=#8C4FFF;strokeColor=none;dashed=0;verticalLabelPosition=bottom;verticalAlign=top;align=center;html=1;fontSize=12;fontStyle=0;aspect=fixed;pointerEvents=1;shape=mxgraph.aws4.endpoints;" parent="1" vertex="1">
          <mxGeometry x="480" y="590.5" width="31" height="31" as="geometry" />
        </mxCell>
        <mxCell id="tsbfdM2prn32jk1IC8PU-51" style="edgeStyle=orthogonalEdgeStyle;rounded=0;orthogonalLoop=1;jettySize=auto;html=1;" parent="1" source="tsbfdM2prn32jk1IC8PU-46" target="tsbfdM2prn32jk1IC8PU-50" edge="1">
          <mxGeometry relative="1" as="geometry" />
        </mxCell>
        <mxCell id="tsbfdM2prn32jk1IC8PU-53" value="IGW" style="text;html=1;strokeColor=none;fillColor=none;align=left;verticalAlign=middle;whiteSpace=wrap;rounded=0;fontFamily=Verdana;fontSize=10;fontStyle=2" parent="1" vertex="1">
          <mxGeometry x="511" y="561" width="27" height="17.5" as="geometry" />
        </mxCell>
        <mxCell id="tsbfdM2prn32jk1IC8PU-54" value="S3-VGW" style="text;html=1;strokeColor=none;fillColor=none;align=left;verticalAlign=middle;whiteSpace=wrap;rounded=0;fontFamily=Verdana;fontSize=10;fontStyle=2" parent="1" vertex="1">
          <mxGeometry x="509" y="604" width="50" height="17.5" as="geometry" />
        </mxCell>
        <mxCell id="tsbfdM2prn32jk1IC8PU-55" value="" style="endArrow=none;html=1;rounded=0;sketch=1;hachureGap=4;jiggle=2;curveFitting=1;fontFamily=Verdana;fontSize=10;" parent="1" edge="1">
          <mxGeometry width="50" height="50" relative="1" as="geometry">
            <mxPoint x="266" y="673" as="sourcePoint" />
            <mxPoint x="768" y="670" as="targetPoint" />
          </mxGeometry>
        </mxCell>
        <mxCell id="tsbfdM2prn32jk1IC8PU-56" value="&lt;ul style=&quot;font-size: 10px;&quot;&gt;&lt;li style=&quot;border-color: var(--border-color);&quot;&gt;&lt;b style=&quot;border-color: var(--border-color);&quot;&gt;STORAGE CLASSES&amp;nbsp;&lt;/b&gt;in S3 represents several different type of storage to determinate the best place to storage our data for specific use cases see tables in documentation&lt;/li&gt;&lt;li style=&quot;border-color: var(--border-color);&quot;&gt;Durability and Availability are offer by AWS S3 as mention in a table in this documentation&lt;/li&gt;&lt;/ul&gt;" style="text;html=1;strokeColor=none;fillColor=none;align=left;verticalAlign=middle;whiteSpace=wrap;rounded=0;fontFamily=Verdana;fontSize=10;" parent="1" vertex="1">
          <mxGeometry x="83" y="704" width="1014" height="65" as="geometry" />
        </mxCell>
        <mxCell id="tsbfdM2prn32jk1IC8PU-57" value="" style="outlineConnect=0;dashed=0;verticalLabelPosition=bottom;verticalAlign=top;align=center;html=1;shape=mxgraph.aws3.bucket_with_objects;fillColor=#E05243;gradientColor=none;fontFamily=Verdana;fontSize=10;" parent="1" vertex="1">
          <mxGeometry x="58.41" y="713" width="42" height="47" as="geometry" />
        </mxCell>
        <mxCell id="tsbfdM2prn32jk1IC8PU-58" value="" style="endArrow=none;html=1;rounded=0;sketch=1;hachureGap=4;jiggle=2;curveFitting=1;fontFamily=Verdana;fontSize=10;" parent="1" edge="1">
          <mxGeometry width="50" height="50" relative="1" as="geometry">
            <mxPoint x="260.5" y="870" as="sourcePoint" />
            <mxPoint x="762.5" y="867" as="targetPoint" />
          </mxGeometry>
        </mxCell>
        <mxCell id="tsbfdM2prn32jk1IC8PU-59" value="" style="outlineConnect=0;dashed=0;verticalLabelPosition=bottom;verticalAlign=top;align=center;html=1;shape=mxgraph.aws3.bucket_with_objects;fillColor=#E05243;gradientColor=none;fontFamily=Verdana;fontSize=10;" parent="1" vertex="1">
          <mxGeometry x="31" y="918" width="42" height="47" as="geometry" />
        </mxCell>
        <mxCell id="tsbfdM2prn32jk1IC8PU-60" value="&lt;ul style=&quot;font-size: 10px;&quot;&gt;&lt;li style=&quot;border-color: var(--border-color);&quot;&gt;&lt;b&gt;IAM Policies vs Bucket Policies and ACLs &lt;/b&gt;in S3 we control the access to our buckets and the objects store within in our S3 objects&lt;br&gt;&lt;/li&gt;&lt;li style=&quot;border-color: var(--border-color);&quot;&gt;IAM Polices as previously mentioned are identity-based policies, applied in a user, group or role, here we can specify action are allowed on AWS resources&lt;/li&gt;&lt;li style=&quot;border-color: var(--border-color);&quot;&gt;Bucket Polices are &lt;span&gt;resources-based&lt;/span&gt;&amp;nbsp;polices, that means, can only be attached in S3 buckets&lt;/li&gt;&lt;li style=&quot;border-color: var(--border-color);&quot;&gt;Also use the AWS access policy language&lt;/li&gt;&lt;li style=&quot;border-color: var(--border-color);&quot;&gt;ACLs are the legacy access control mechanism that predates IAM&lt;/li&gt;&lt;li style=&quot;border-color: var(--border-color);&quot;&gt;We need choose IAM polices if:&amp;nbsp;&lt;/li&gt;&lt;ul&gt;&lt;li style=&quot;border-color: var(--border-color);&quot;&gt;Need to control access to AWS services other than S3&lt;/li&gt;&lt;li style=&quot;border-color: var(--border-color);&quot;&gt;Have numerous S3 buckets each with different permissions requirements (IAM policies will be easier to manage)&lt;/li&gt;&lt;li style=&quot;border-color: var(--border-color);&quot;&gt;Keep access control policies in the &lt;span&gt;IAM ENV&lt;/span&gt;&lt;/li&gt;&lt;/ul&gt;&lt;li&gt;We need choose S3 bucket polices if:&lt;/li&gt;&lt;ul&gt;&lt;li&gt;Want a simple way to grant cross-account access to S3 env, without IAM roles&lt;/li&gt;&lt;li&gt;IAM polices are reaching the size limits&lt;/li&gt;&lt;li&gt;Prefer to keep aces control policies in the S3 environment&lt;/li&gt;&lt;/ul&gt;&lt;li&gt;&lt;span style=&quot;font-style: normal;&quot;&gt;Explicit&lt;/span&gt; Deny &lt;span style=&quot;font-style: normal;&quot;&gt;role always overrides the &lt;/span&gt;Allow&lt;/li&gt;&lt;/ul&gt;" style="text;html=1;strokeColor=none;fillColor=none;align=left;verticalAlign=middle;whiteSpace=wrap;rounded=0;fontFamily=Verdana;fontSize=10;fontStyle=2" parent="1" vertex="1">
          <mxGeometry x="88" y="876" width="847" height="168" as="geometry" />
        </mxCell>
        <mxCell id="tsbfdM2prn32jk1IC8PU-61" value="IAM Policy" style="sketch=0;outlineConnect=0;fontColor=#232F3E;gradientColor=none;fillColor=#7AA116;strokeColor=none;dashed=0;verticalLabelPosition=bottom;verticalAlign=top;align=center;html=1;fontSize=9;fontStyle=0;aspect=fixed;pointerEvents=1;shape=mxgraph.aws4.policy;" parent="1" vertex="1">
          <mxGeometry x="77.22" y="923" width="26.78" height="23" as="geometry" />
        </mxCell>
        <mxCell id="vqqCAYeYxxY31uSUWdUu-3" value="" style="endArrow=none;html=1;rounded=0;sketch=1;hachureGap=4;jiggle=2;curveFitting=1;fontFamily=Verdana;fontSize=10;" edge="1" parent="1">
          <mxGeometry width="50" height="50" relative="1" as="geometry">
            <mxPoint x="256.5" y="1082" as="sourcePoint" />
            <mxPoint x="758.5" y="1079" as="targetPoint" />
          </mxGeometry>
        </mxCell>
        <mxCell id="vqqCAYeYxxY31uSUWdUu-4" value="" style="outlineConnect=0;dashed=0;verticalLabelPosition=bottom;verticalAlign=top;align=center;html=1;shape=mxgraph.aws3.bucket_with_objects;fillColor=#E05243;gradientColor=none;fontFamily=Verdana;fontSize=10;" vertex="1" parent="1">
          <mxGeometry x="27" y="1130" width="42" height="47" as="geometry" />
        </mxCell>
        <mxCell id="vqqCAYeYxxY31uSUWdUu-5" value="&lt;ul style=&quot;font-size: 10px;&quot;&gt;&lt;li style=&quot;border-color: var(--border-color);&quot;&gt;&lt;b&gt;VERSIONING &lt;/b&gt;&lt;span style=&quot;font-style: normal;&quot;&gt;is a means of keeping multiple variants of an object in the same bucket, versioning to preserve, retrieve, and store every version of every object stored in your S3, and enable buckets to recover objects from &lt;b&gt;accidental deletion &lt;/b&gt;or &lt;b&gt;overwrite&lt;/b&gt;&lt;/span&gt;&lt;/li&gt;&lt;li style=&quot;border-color: var(--border-color);&quot;&gt;&lt;span style=&quot;font-style: normal;&quot;&gt;Replication is simple, and can be do in different region or same region, same region with across accounts&lt;/span&gt;&lt;/li&gt;&lt;li style=&quot;border-color: var(--border-color);&quot;&gt;&lt;span style=&quot;font-style: normal;&quot;&gt;On Replication we have S3 Lifecycle Management that are:&lt;/span&gt;&lt;/li&gt;&lt;ul&gt;&lt;li style=&quot;border-color: var(--border-color);&quot;&gt;&lt;span style=&quot;font-style: normal;&quot;&gt;&lt;b&gt;Transition actions:&amp;nbsp;&lt;/b&gt;define when objects transition to another class&lt;/span&gt;&lt;/li&gt;&lt;li style=&quot;border-color: var(--border-color);&quot;&gt;&lt;span style=&quot;font-style: normal;&quot;&gt;&lt;b&gt;Expiration actions: &lt;/b&gt;define when objects expire (delete from S3)&lt;/span&gt;&lt;/li&gt;&lt;/ul&gt;&lt;/ul&gt;" style="text;html=1;strokeColor=none;fillColor=none;align=left;verticalAlign=middle;whiteSpace=wrap;rounded=0;fontFamily=Verdana;fontSize=10;fontStyle=2" vertex="1" parent="1">
          <mxGeometry x="84.5" y="1124" width="716" height="89" as="geometry" />
        </mxCell>
        <mxCell id="vqqCAYeYxxY31uSUWdUu-6" value="IAM Policy" style="sketch=0;outlineConnect=0;fontColor=#232F3E;gradientColor=none;fillColor=#7AA116;strokeColor=none;dashed=0;verticalLabelPosition=bottom;verticalAlign=top;align=center;html=1;fontSize=9;fontStyle=0;aspect=fixed;pointerEvents=1;shape=mxgraph.aws4.policy;" vertex="1" parent="1">
          <mxGeometry x="73.22" y="1135" width="26.78" height="23" as="geometry" />
        </mxCell>
        <mxCell id="vqqCAYeYxxY31uSUWdUu-7" value="eu-east-1" style="points=[[0,0],[0.25,0],[0.5,0],[0.75,0],[1,0],[1,0.25],[1,0.5],[1,0.75],[1,1],[0.75,1],[0.5,1],[0.25,1],[0,1],[0,0.75],[0,0.5],[0,0.25]];outlineConnect=0;gradientColor=none;html=1;whiteSpace=wrap;fontSize=12;fontStyle=0;container=1;pointerEvents=0;collapsible=0;recursiveResize=0;shape=mxgraph.aws4.group;grIcon=mxgraph.aws4.group_region;strokeColor=#00A4A6;fillColor=none;verticalAlign=top;align=left;spacingLeft=30;fontColor=#147EBA;dashed=1;" vertex="1" parent="1">
          <mxGeometry x="163" y="1251" width="208" height="157" as="geometry" />
        </mxCell>
        <mxCell id="vqqCAYeYxxY31uSUWdUu-10" value="" style="sketch=0;outlineConnect=0;fontColor=#232F3E;gradientColor=none;fillColor=#7AA116;strokeColor=none;dashed=0;verticalLabelPosition=bottom;verticalAlign=top;align=center;html=1;fontSize=10;fontStyle=0;aspect=fixed;pointerEvents=1;shape=mxgraph.aws4.bucket_with_objects;fontFamily=Verdana;" vertex="1" parent="vqqCAYeYxxY31uSUWdUu-7">
          <mxGeometry x="91" y="67" width="36.54" height="38" as="geometry" />
        </mxCell>
        <mxCell id="vqqCAYeYxxY31uSUWdUu-8" value="sa-east-1" style="points=[[0,0],[0.25,0],[0.5,0],[0.75,0],[1,0],[1,0.25],[1,0.5],[1,0.75],[1,1],[0.75,1],[0.5,1],[0.25,1],[0,1],[0,0.75],[0,0.5],[0,0.25]];outlineConnect=0;gradientColor=none;html=1;whiteSpace=wrap;fontSize=12;fontStyle=0;container=1;pointerEvents=0;collapsible=0;recursiveResize=0;shape=mxgraph.aws4.group;grIcon=mxgraph.aws4.group_region;strokeColor=#00A4A6;fillColor=none;verticalAlign=top;align=left;spacingLeft=30;fontColor=#147EBA;dashed=1;" vertex="1" parent="1">
          <mxGeometry x="511" y="1251" width="208" height="157" as="geometry" />
        </mxCell>
        <mxCell id="vqqCAYeYxxY31uSUWdUu-11" value="" style="sketch=0;outlineConnect=0;fontColor=#232F3E;gradientColor=none;fillColor=#7AA116;strokeColor=none;dashed=0;verticalLabelPosition=bottom;verticalAlign=top;align=center;html=1;fontSize=10;fontStyle=0;aspect=fixed;pointerEvents=1;shape=mxgraph.aws4.bucket_with_objects;fontFamily=Verdana;" vertex="1" parent="vqqCAYeYxxY31uSUWdUu-8">
          <mxGeometry x="84" y="67" width="36.54" height="38" as="geometry" />
        </mxCell>
        <mxCell id="vqqCAYeYxxY31uSUWdUu-12" style="edgeStyle=orthogonalEdgeStyle;rounded=0;orthogonalLoop=1;jettySize=auto;html=1;endArrow=none;endFill=0;" edge="1" parent="1" source="vqqCAYeYxxY31uSUWdUu-10" target="vqqCAYeYxxY31uSUWdUu-11">
          <mxGeometry relative="1" as="geometry" />
        </mxCell>
        <mxCell id="vqqCAYeYxxY31uSUWdUu-13" value="sa-east-1" style="points=[[0,0],[0.25,0],[0.5,0],[0.75,0],[1,0],[1,0.25],[1,0.5],[1,0.75],[1,1],[0.75,1],[0.5,1],[0.25,1],[0,1],[0,0.75],[0,0.5],[0,0.25]];outlineConnect=0;gradientColor=none;html=1;whiteSpace=wrap;fontSize=12;fontStyle=0;container=1;pointerEvents=0;collapsible=0;recursiveResize=0;shape=mxgraph.aws4.group;grIcon=mxgraph.aws4.group_region;strokeColor=#00A4A6;fillColor=none;verticalAlign=top;align=left;spacingLeft=30;fontColor=#147EBA;dashed=1;" vertex="1" parent="1">
          <mxGeometry x="159" y="1432" width="567" height="147" as="geometry" />
        </mxCell>
        <mxCell id="vqqCAYeYxxY31uSUWdUu-24" value="" style="rounded=1;arcSize=3;dashed=1;strokeColor=#ff0000;fillColor=none;gradientColor=none;dashPattern=8 4;strokeWidth=2;" vertex="1" parent="vqqCAYeYxxY31uSUWdUu-13">
          <mxGeometry x="438" y="-13" width="117" height="165" as="geometry" />
        </mxCell>
        <mxCell id="vqqCAYeYxxY31uSUWdUu-20" value="" style="rounded=1;arcSize=3;dashed=1;strokeColor=#ff0000;fillColor=none;gradientColor=none;dashPattern=8 4;strokeWidth=2;" vertex="1" parent="vqqCAYeYxxY31uSUWdUu-13">
          <mxGeometry x="105" y="-14" width="117" height="168" as="geometry" />
        </mxCell>
        <mxCell id="vqqCAYeYxxY31uSUWdUu-17" style="rounded=0;orthogonalLoop=1;jettySize=auto;html=1;endArrow=none;endFill=0;" edge="1" parent="vqqCAYeYxxY31uSUWdUu-13" source="vqqCAYeYxxY31uSUWdUu-14" target="vqqCAYeYxxY31uSUWdUu-15">
          <mxGeometry relative="1" as="geometry" />
        </mxCell>
        <mxCell id="vqqCAYeYxxY31uSUWdUu-28" style="edgeStyle=orthogonalEdgeStyle;rounded=0;orthogonalLoop=1;jettySize=auto;html=1;endArrow=none;endFill=0;" edge="1" parent="vqqCAYeYxxY31uSUWdUu-13" source="vqqCAYeYxxY31uSUWdUu-14" target="vqqCAYeYxxY31uSUWdUu-23">
          <mxGeometry relative="1" as="geometry" />
        </mxCell>
        <mxCell id="vqqCAYeYxxY31uSUWdUu-14" value="" style="sketch=0;outlineConnect=0;fontColor=#232F3E;gradientColor=none;fillColor=#7AA116;strokeColor=none;dashed=0;verticalLabelPosition=bottom;verticalAlign=top;align=center;html=1;fontSize=10;fontStyle=0;aspect=fixed;pointerEvents=1;shape=mxgraph.aws4.bucket_with_objects;fontFamily=Verdana;" vertex="1" parent="vqqCAYeYxxY31uSUWdUu-13">
          <mxGeometry x="137" y="86" width="36.54" height="38" as="geometry" />
        </mxCell>
        <mxCell id="vqqCAYeYxxY31uSUWdUu-15" value="" style="sketch=0;outlineConnect=0;fontColor=#232F3E;gradientColor=none;fillColor=#7AA116;strokeColor=none;dashed=0;verticalLabelPosition=bottom;verticalAlign=top;align=center;html=1;fontSize=10;fontStyle=0;aspect=fixed;pointerEvents=1;shape=mxgraph.aws4.bucket_with_objects;fontFamily=Verdana;" vertex="1" parent="vqqCAYeYxxY31uSUWdUu-13">
          <mxGeometry x="325" y="41" width="36.54" height="38" as="geometry" />
        </mxCell>
        <mxCell id="vqqCAYeYxxY31uSUWdUu-19" value="" style="sketch=0;outlineConnect=0;fontColor=#232F3E;gradientColor=none;fillColor=#E7157B;strokeColor=none;dashed=0;verticalLabelPosition=bottom;verticalAlign=top;align=center;html=1;fontSize=12;fontStyle=0;aspect=fixed;pointerEvents=1;shape=mxgraph.aws4.organizations_account;" vertex="1" parent="vqqCAYeYxxY31uSUWdUu-13">
          <mxGeometry x="113" y="3" width="38.9" height="41" as="geometry" />
        </mxCell>
        <mxCell id="vqqCAYeYxxY31uSUWdUu-21" value="account" style="text;html=1;strokeColor=none;fillColor=none;align=center;verticalAlign=middle;whiteSpace=wrap;rounded=0;fontStyle=1" vertex="1" parent="vqqCAYeYxxY31uSUWdUu-13">
          <mxGeometry x="133.5" width="60" height="30" as="geometry" />
        </mxCell>
        <mxCell id="vqqCAYeYxxY31uSUWdUu-25" value="" style="sketch=0;outlineConnect=0;fontColor=#232F3E;gradientColor=none;fillColor=#E7157B;strokeColor=none;dashed=0;verticalLabelPosition=bottom;verticalAlign=top;align=center;html=1;fontSize=12;fontStyle=0;aspect=fixed;pointerEvents=1;shape=mxgraph.aws4.organizations_account;" vertex="1" parent="vqqCAYeYxxY31uSUWdUu-13">
          <mxGeometry x="446" y="3" width="38.9" height="41" as="geometry" />
        </mxCell>
        <mxCell id="vqqCAYeYxxY31uSUWdUu-26" value="account" style="text;html=1;strokeColor=none;fillColor=none;align=center;verticalAlign=middle;whiteSpace=wrap;rounded=0;fontStyle=1" vertex="1" parent="vqqCAYeYxxY31uSUWdUu-13">
          <mxGeometry x="466.5" width="60" height="30" as="geometry" />
        </mxCell>
        <mxCell id="vqqCAYeYxxY31uSUWdUu-23" value="" style="sketch=0;outlineConnect=0;fontColor=#232F3E;gradientColor=none;fillColor=#7AA116;strokeColor=none;dashed=0;verticalLabelPosition=bottom;verticalAlign=top;align=center;html=1;fontSize=10;fontStyle=0;aspect=fixed;pointerEvents=1;shape=mxgraph.aws4.bucket_with_objects;fontFamily=Verdana;" vertex="1" parent="vqqCAYeYxxY31uSUWdUu-13">
          <mxGeometry x="470" y="86" width="36.54" height="38" as="geometry" />
        </mxCell>
        <mxCell id="vqqCAYeYxxY31uSUWdUu-60" value="" style="shape=image;verticalLabelPosition=bottom;labelBackgroundColor=default;verticalAlign=top;aspect=fixed;imageAspect=0;image=https://525875.fs1.hubspotusercontent-na1.net/hub/525875/hubfs/Screen%20Shot%202021-12-26%20at%2012.49.36.png?quality=high&amp;width=540&amp;name=Screen%20Shot%202021-12-26%20at%2012.49.36.png;" vertex="1" parent="1">
          <mxGeometry x="17.14" y="1613" width="421.39" height="270" as="geometry" />
        </mxCell>
        <mxCell id="vqqCAYeYxxY31uSUWdUu-61" value="&lt;font style=&quot;&quot; face=&quot;Verdana&quot;&gt;&lt;font style=&quot;font-size: 13px;&quot;&gt;&lt;u&gt;S3 LM: Supported Transitions&lt;/u&gt;&lt;/font&gt;&lt;br&gt;&lt;br&gt;&lt;/font&gt;&lt;div style=&quot;text-align: left; font-size: 10px;&quot;&gt;&lt;ul style=&quot;&quot;&gt;&lt;li style=&quot;&quot;&gt;&lt;font style=&quot;font-size: 10px;&quot; face=&quot;Verdana&quot;&gt;The S3 Standard storage class to any other storage class&lt;/font&gt;&lt;/li&gt;&lt;li style=&quot;&quot;&gt;&lt;font style=&quot;font-size: 10px;&quot; face=&quot;Verdana&quot;&gt;Any storage class to the S3 Glacier or S3 Glacier Deep Archive storage class&lt;/font&gt;&lt;/li&gt;&lt;li style=&quot;&quot;&gt;&lt;font style=&quot;font-size: 10px;&quot; face=&quot;Verdana&quot;&gt;The S3 Standard-IA storage class to the S3 Intelligent-Tiering or S3 One Zone-IA storage class&lt;/font&gt;&lt;/li&gt;&lt;li style=&quot;&quot;&gt;&lt;font style=&quot;font-size: 10px;&quot; face=&quot;Verdana&quot;&gt;The S3 Intelligent-Tiering storage class to the S3 One Zone-IA storage class&lt;/font&gt;&lt;/li&gt;&lt;li style=&quot;&quot;&gt;&lt;font style=&quot;font-size: 10px;&quot; face=&quot;Verdana&quot;&gt;The S3 Glacier storage class to the S3 Glacier Deep Archive storage class&lt;/font&gt;&lt;/li&gt;&lt;/ul&gt;&lt;/div&gt;" style="text;html=1;strokeColor=none;fillColor=none;align=center;verticalAlign=middle;whiteSpace=wrap;rounded=0;" vertex="1" parent="1">
          <mxGeometry x="453" y="1628" width="529" height="123" as="geometry" />
        </mxCell>
        <mxCell id="vqqCAYeYxxY31uSUWdUu-62" value="&lt;font style=&quot;&quot; face=&quot;Verdana&quot;&gt;&lt;font style=&quot;font-size: 13px;&quot;&gt;&lt;u&gt;S3 LM: Unsupported Transitions&lt;/u&gt;&lt;/font&gt;&lt;br&gt;&lt;br&gt;&lt;/font&gt;&lt;div style=&quot;text-align: left; font-size: 10px;&quot;&gt;&lt;ul style=&quot;&quot;&gt;&lt;li style=&quot;&quot;&gt;&lt;font face=&quot;Verdana&quot;&gt;Any Storage class to the S3 Standard storage class&lt;/font&gt;&lt;/li&gt;&lt;li style=&quot;&quot;&gt;&lt;font face=&quot;Verdana&quot;&gt;Any Storage class to the Reduced Redundancy storage class&lt;/font&gt;&lt;/li&gt;&lt;li style=&quot;&quot;&gt;&lt;font face=&quot;Verdana&quot;&gt;The S3 Intelligent-Tiering storage class to the S3 Standard-IA storage class&lt;/font&gt;&lt;/li&gt;&lt;li style=&quot;&quot;&gt;&lt;font face=&quot;Verdana&quot;&gt;The S3 One Zone-IA storage class to the S3 Standard-IA or S3 Intelligent-Tiering storage class&lt;/font&gt;&lt;/li&gt;&lt;/ul&gt;&lt;/div&gt;" style="text;html=1;strokeColor=none;fillColor=none;align=center;verticalAlign=middle;whiteSpace=wrap;rounded=0;" vertex="1" parent="1">
          <mxGeometry x="464" y="1763" width="528" height="92" as="geometry" />
        </mxCell>
        <mxCell id="vqqCAYeYxxY31uSUWdUu-63" value="&lt;ul style=&quot;font-size: 10px;&quot;&gt;&lt;li style=&quot;font-size: 10px;&quot;&gt;MFA with S3, means beyond our password we need provide a second auth factor&lt;/li&gt;&lt;li style=&quot;font-size: 10px;&quot;&gt;Add requirement for bucket owners to the following MFA delete operations&lt;/li&gt;&lt;ul&gt;&lt;li style=&quot;font-size: 10px;&quot;&gt;Changing the version of state of a bucket&lt;/li&gt;&lt;li style=&quot;font-size: 10px;&quot;&gt;Permanently deleting an object version&lt;/li&gt;&lt;li style=&quot;font-size: 10px;&quot;&gt;&lt;b&gt;x-amz-mfa&lt;/b&gt; header must be included on the requests&lt;/li&gt;&lt;li style=&quot;font-size: 10px;&quot;&gt;MFA protected API access enforce using aws:MultifactorAuthAge key using, and denies any API operation that is not authenticated by a MFA e.g.: {Condition: { Null: aws:MultiFactorAuthAge: true } }&lt;/li&gt;&lt;/ul&gt;&lt;/ul&gt;" style="text;html=1;strokeColor=none;fillColor=none;align=left;verticalAlign=middle;whiteSpace=wrap;rounded=0;fontFamily=Verdana;fontSize=10;" vertex="1" parent="1">
          <mxGeometry x="17.14" y="1967" width="665" height="117" as="geometry" />
        </mxCell>
        <mxCell id="vqqCAYeYxxY31uSUWdUu-64" value="" style="endArrow=none;html=1;rounded=0;sketch=1;hachureGap=4;jiggle=2;curveFitting=1;fontFamily=Verdana;fontSize=10;" edge="1" parent="1">
          <mxGeometry width="50" height="50" relative="1" as="geometry">
            <mxPoint x="309" y="1935" as="sourcePoint" />
            <mxPoint x="811" y="1932" as="targetPoint" />
            <Array as="points">
              <mxPoint x="429" y="1932" />
              <mxPoint x="559" y="1932" />
            </Array>
          </mxGeometry>
        </mxCell>
        <mxCell id="vqqCAYeYxxY31uSUWdUu-65" value="&lt;ul style=&quot;font-size: 10px;&quot;&gt;&lt;li style=&quot;font-size: 10px;&quot;&gt;&lt;b&gt;S3 Encryption &lt;/b&gt;can be used by &lt;i&gt;server-side encryption with S3 managed key (SSE-S3), &lt;/i&gt;in unique object using AES 256, so a user uploading a object it&#39;s will be a TLS communication, and decrypted in S3 and sent to user&lt;/li&gt;&lt;li style=&quot;font-size: 10px;&quot;&gt;&lt;b&gt;Server Side encryption &lt;/b&gt;can be used by AWS KMS managed keys, in this case the keys are managed by AWS/KMS or customer managed KMS Keys, (de)encryption will be in S3 also&lt;/li&gt;&lt;li style=&quot;font-size: 10px;&quot;&gt;&lt;b&gt;Server Side encryption with Client (SSE-C)&lt;/b&gt;&amp;nbsp;in this case, we still have the (de)encryption having in S3, but the keys are manage totally up to the client&lt;/li&gt;&lt;/ul&gt;" style="text;html=1;strokeColor=none;fillColor=none;align=left;verticalAlign=middle;whiteSpace=wrap;rounded=0;fontFamily=Verdana;fontSize=10;" vertex="1" parent="1">
          <mxGeometry x="73" y="2130" width="665" height="117" as="geometry" />
        </mxCell>
        <mxCell id="vqqCAYeYxxY31uSUWdUu-66" value="" style="outlineConnect=0;dashed=0;verticalLabelPosition=bottom;verticalAlign=top;align=center;html=1;shape=mxgraph.aws3.bucket_with_objects;fillColor=#E05243;gradientColor=none;fontFamily=Verdana;fontSize=10;" vertex="1" parent="1">
          <mxGeometry x="26" y="2174" width="42" height="47" as="geometry" />
        </mxCell>
        <mxCell id="vqqCAYeYxxY31uSUWdUu-67" value="" style="endArrow=none;html=1;rounded=0;sketch=1;hachureGap=4;jiggle=2;curveFitting=1;fontFamily=Verdana;fontSize=10;" edge="1" parent="1">
          <mxGeometry width="50" height="50" relative="1" as="geometry">
            <mxPoint x="319" y="2107" as="sourcePoint" />
            <mxPoint x="826" y="2107" as="targetPoint" />
            <Array as="points">
              <mxPoint x="574" y="2107" />
            </Array>
          </mxGeometry>
        </mxCell>
        <mxCell id="vqqCAYeYxxY31uSUWdUu-68" value="" style="outlineConnect=0;dashed=0;verticalLabelPosition=bottom;verticalAlign=top;align=center;html=1;shape=mxgraph.aws3.kms;fillColor=#759C3E;gradientColor=none;" vertex="1" parent="1">
          <mxGeometry x="73" y="2180" width="20" height="22" as="geometry" />
        </mxCell>
        <mxCell id="vqqCAYeYxxY31uSUWdUu-69" value="" style="endArrow=none;html=1;rounded=0;sketch=1;hachureGap=4;jiggle=2;curveFitting=1;fontFamily=Verdana;fontSize=10;" edge="1" parent="1">
          <mxGeometry width="50" height="50" relative="1" as="geometry">
            <mxPoint x="314" y="2273" as="sourcePoint" />
            <mxPoint x="816" y="2270" as="targetPoint" />
            <Array as="points">
              <mxPoint x="564" y="2270" />
            </Array>
          </mxGeometry>
        </mxCell>
        <mxCell id="vqqCAYeYxxY31uSUWdUu-70" value="" style="outlineConnect=0;dashed=0;verticalLabelPosition=bottom;verticalAlign=top;align=center;html=1;shape=mxgraph.aws3.bucket_with_objects;fillColor=#E05243;gradientColor=none;fontFamily=Verdana;fontSize=10;" vertex="1" parent="1">
          <mxGeometry x="19.78" y="2311" width="42" height="47" as="geometry" />
        </mxCell>
        <mxCell id="vqqCAYeYxxY31uSUWdUu-71" value="&lt;div&gt;&lt;br&gt;&lt;/div&gt;&lt;ul style=&quot;&quot;&gt;&lt;li&gt;&lt;b&gt;Allows organizing objects/keys through by POLICY R/W to /finance prefix, for example, giving &quot;finance&quot; or other domain, access point&lt;/b&gt;&lt;/li&gt;&lt;li&gt;&lt;b&gt;* We can define the access pint to be accessible only from within the VPC, using VPC endpoint to access the access point the policy of VPC Endpoint must allow access to the target bucket&lt;/b&gt;&lt;/li&gt;&lt;li style=&quot;&quot;&gt;&lt;b&gt;Cross-Origin Resource (CORS) &lt;/b&gt;Sharing over S3 objects, scheme/host/port - in https/domain needs to be configured to allow web browser requests the origin over objects, enabling the correct CORS Headers&lt;/li&gt;&lt;li&gt;&lt;b&gt;S3 Access Points &lt;/b&gt;allows organizing objects/keys through by POLICY R/W to /finance prefix, for example, giving &quot;finance&quot; or other domain, access point&lt;/li&gt;&lt;li&gt;We can define the access pint to be accessible only from within the VPC, using VPC endpoint to access the access point the policy of VPC Endpoint must allow access to the target bucket&lt;/li&gt;&lt;li&gt;&lt;b&gt;S3 Object Lambda&lt;/b&gt;&amp;nbsp;allows lambda functions to process the output of S3 GET Request&lt;/li&gt;&lt;/ul&gt;" style="text;html=1;strokeColor=none;fillColor=none;align=left;verticalAlign=middle;whiteSpace=wrap;rounded=0;fontFamily=Verdana;fontSize=10;" vertex="1" parent="1">
          <mxGeometry x="42" y="2289.5" width="1046" height="122.5" as="geometry" />
        </mxCell>
      </root>
    </mxGraphModel>
  </diagram>
</mxfile>
